<svg xmlns="http://www.w3.org/2000/svg" viewBox="0 0 512 512">
    <!--! Font Awesome Pro 6.4.0 by @fontawesome - https://fontawesome.com License - https://fontawesome.com/license (Commercial License) Copyright 2023 Fonticons, Inc. -->
    <path
        d="M 446 39 H 61.9 C 44.3 39 30 53.5 30 71.3 v 383.4 C 30 472.5 44.3 487 61.9 487 H 446 c 17.6 0 32 -14.5 32 -32.3 V 71.3 c 0 -17.8 -14.4 -32.3 -32 -32.3 z M 165.4 423 H 99 V 209.2 h 66.5 V 423 z m -33.2 -243 c -21.3 0 -38.5 -17.3 -38.5 -38.5 S 110.9 103 132.2 103 c 21.2 0 38.5 17.3 38.5 38.5 c 0 21.3 -17.2 38.5 -38.5 38.5 z m 282.1 243 h -66.4 V 319 c 0 -24.8 -0.5 -56.7 -34.5 -56.7 c -34.6 0 -39.9 27 -39.9 54.9 V 423 h -66.4 V 209.2 h 63.7 v 29.2 h 0.9 c 8.9 -16.8 30.6 -34.5 62.9 -34.5 c 67.2 0 79.7 44.3 79.7 101.9 V 423 z" />
</svg>