<svg xmlns="http://www.w3.org/2000/svg" viewBox="0 0 64 64" width="64" height="64">
    <path
        d="M 32.8 53.1 c 0 -1.1 0.6 -1.9 1.1 -3 c -0.6 -0.3 -1.1 -0.8 -1.4 -1.4 c -0.3 -0.5 -0.6 -1.1 -0.8 -1.6 c -0.6 -1.9 -0.8 -4.1 -1.1 -6 v -1.4 c -0.3 0.3 -0.3 1.9 -0.3 2.2 C 30.2 44.1 29.9 46.3 29.5 48.5 c -0.3 0.8 -0.3 1.6 -0.8 2.4 c 0 0 0 0.3 0 0.3 c 0.8 2.4 1.1 5.2 1.4 7.6 v 0.8 c 0 1.1 0 0.8 0.8 1.4 c 0.3 0.3 0.8 0.3 1.1 0.5 c 0.3 0 0.3 -0.3 0.3 -0.5 l -0.3 -1.6 v -4.3 c 0 -0.8 0 -1.6 0.3 -2.2 z"
        fill="#c2bfbf" />
    <g>
        <path transform="matrix(1.7,0,0,2.1,-13.6,-20)" fill="#599636"
            d="M 25.8 8.7 l 0.9 1.6 c 0.2 0.3 0.4 0.6 0.6 0.8 c 0.7 0.7 1.4 1.5 2 2.3 c 1.4 1.9 2.4 4 3.1 6.3 c 0.4 1.4 0.6 2.8 0.7 4.3 c 0.1 4.3 -1.4 8 -4.4 11.1 c -0.5 0.5 -1 0.9 -1.6 1.3 c -0.3 0 -0.4 -0.2 -0.6 -0.4 c -0.2 -0.4 -0.4 -0.8 -0.4 -1.3 c -0.1 -0.5 -0.2 -1 -0.1 -1.6 v -0.2 C 26 32.8 25.7 8.8 25.8 8.7 z" />
    </g>
    <g>
        <path transform="matrix(1.4,0,0,1.9,-4.7,-15.5)" fill="#6cac48"
            d="M 25.5 8.4 c 0 -0.1 -0.1 0 -0.1 0 c 0 0.3 -0.1 0.7 -0.3 1 c -0.2 0.3 -0.5 0.5 -0.8 0.8 c -1.6 1.3 -2.8 3 -3.7 4.8 c -1.3 2.4 -2 5.1 -2.2 7.8 c -0.1 1 0.3 4.5 0.6 5.5 c 0.9 2.7 2.4 4.9 4.4 6.9 c 0.5 0.5 1 0.9 1.6 1.3 c 0.2 0 0.2 -0.1 0.2 -0.2 C 25.3 36 25.3 35.8 25.3 35.6 l 0.4 -2.6 L 25.5 8.4 z" />
    </g>
</svg>